<svg xmlns="http://www.w3.org/2000/svg" width="24" height="24" viewBox="0 0 24 24">
    <g fill="none" fill-rule="evenodd">
        <path d="M0 0h24v24H0z"/>
        <path fill="#C0C0C0" d="M18.209 14h-.428a.217.217 0 0 1-.048-.008.1.1 0 0 1-.047-.024 1.938 1.938 0 0 1-1.166-.603 1.799 1.799 0 0 1-.515-1.19 2.048 2.048 0 0 1 .341-1.31c.259-.386.62-.648 1.086-.786a3.78 3.78 0 0 0 .174-.04 3.78 3.78 0 0 1 .175-.039h.428a.11.11 0 0 1 .047.008l.048.024c.412.074.753.23 1.022.468.27.238.468.558.595.96.01.053.024.106.04.159.015.053.028.106.039.159v.444c0 .01-.005.024-.016.04a.077.077 0 0 0-.016.04 1.977 1.977 0 0 1-1.538 1.65.376.376 0 0 0-.102.016 3.7 3.7 0 0 1-.12.032zm-6 0h-.428a.217.217 0 0 1-.048-.008.1.1 0 0 1-.047-.024 1.938 1.938 0 0 1-1.166-.603 1.799 1.799 0 0 1-.515-1.19 2.048 2.048 0 0 1 .341-1.31c.259-.386.62-.648 1.086-.786a3.78 3.78 0 0 0 .174-.04 3.78 3.78 0 0 1 .175-.039h.428a.11.11 0 0 1 .047.008l.048.024c.412.074.753.23 1.022.468.27.238.468.558.595.96.01.053.024.106.04.159.015.053.028.106.039.159v.444c0 .01-.005.024-.016.04a.077.077 0 0 0-.016.04 1.977 1.977 0 0 1-1.538 1.65.376.376 0 0 0-.102.016 3.7 3.7 0 0 1-.12.032zm-6 0H5.78a.217.217 0 0 1-.048-.008.1.1 0 0 1-.047-.024 1.938 1.938 0 0 1-1.166-.603 1.799 1.799 0 0 1-.515-1.19 2.048 2.048 0 0 1 .341-1.31c.259-.386.62-.648 1.086-.786a3.78 3.78 0 0 0 .174-.04A3.78 3.78 0 0 1 5.781 10h.428a.11.11 0 0 1 .047.008l.048.024c.412.074.753.23 1.022.468.27.238.468.558.595.96.01.053.024.106.04.159.015.053.028.106.039.159v.444c0 .01-.005.024-.016.04a.077.077 0 0 0-.016.04 1.977 1.977 0 0 1-1.538 1.65.376.376 0 0 0-.102.016 3.7 3.7 0 0 1-.12.032z"/>
    </g>
</svg>
